<svg width="76" height="69" viewBox="0 0 76 69" fill="none" xmlns="http://www.w3.org/2000/svg">
<g id="logo64">
<g id="Vector 1">
<path d="M46.0769 64H56.5L54.6923 51.8L52.5385 39.6L46.0769 64Z" fill="black"/>
<path d="M13.7692 3C13.7692 3 7.20565 3 3 3C7.20565 26.822 13.7692 64 13.7692 64L20.9487 43.6667L13.7692 3Z" fill="black"/>
<path d="M13.7692 64H24.5385L20.9487 43.6667L13.7692 64Z" fill="black"/>
<path d="M35.5 3L20.9487 43.6667L24.5385 64L38.8974 23.3333L35.5 3Z" fill="black"/>
<path d="M46.0769 3H35.5L38.8974 23.3333L46.0769 3Z" fill="black"/>
<path d="M52.5385 39.6L46.0769 3L38.8974 23.3333L46.0769 64L52.5385 39.6Z" fill="black"/>
<path d="M73 3H62.5L52.5385 39.6L54.6923 51.8L56.5 64L73 3Z" fill="black"/>
</g>
<path id="Vector 3" d="M46 3L24.5 64L35.5 3H46Z" fill="#00FE91"/>
<path id="Vector 4" d="M73 3L56.5 64L62.5 3H73Z" fill="#00FE91"/>
</g>
</svg>
