<svg width="63" height="63" viewBox="0 0 63 63" fill="none" xmlns="http://www.w3.org/2000/svg">
<path d="M56.2822 32.7074V31.0198V29.3099L60.6611 25.5794C61.4683 24.8867 61.998 23.9384 62.1566 22.9023C62.3152 21.8661 62.0924 20.8087 61.5278 19.9169L56.1453 11.0346C55.7454 10.3602 55.1703 9.79995 54.4778 9.4102C53.7853 9.02044 52.9996 8.81486 52.1997 8.81406C51.704 8.81036 51.211 8.88536 50.7401 9.03611L45.198 10.857C44.2412 10.2379 43.2431 9.68153 42.2103 9.19155L41.0472 3.59571C40.8386 2.57337 40.2674 1.65502 39.4335 1.00142C38.5996 0.347824 37.5561 0.00062032 36.4858 0.0205913H25.8121C24.7418 0.00062032 23.6983 0.347824 22.8644 1.00142C22.0305 1.65502 21.4593 2.57337 21.2507 3.59571L20.0876 9.19155C19.0474 9.68141 18.0417 10.2378 17.0771 10.857L11.649 8.94729C11.173 8.82654 10.6801 8.78155 10.1894 8.81406C9.38949 8.81486 8.60388 9.02044 7.91135 9.4102C7.21882 9.79995 6.64374 10.3602 6.24379 11.0346L0.86136 19.9169C0.329016 20.8073 0.1312 21.8503 0.30179 22.8671C0.47238 23.8839 1.00076 24.8113 1.79644 25.4906L6.10695 29.3321V32.7296L1.79644 36.4602C0.978288 37.1441 0.435453 38.0881 0.264271 39.1247C0.0930897 40.1613 0.304633 41.2235 0.86136 42.1226L6.24379 51.0049C6.64374 51.6794 7.21882 52.2396 7.91135 52.6294C8.60388 53.0191 9.38949 53.2247 10.1894 53.2255C10.6851 53.2292 11.1781 53.1542 11.649 53.0034L17.1911 51.1826C18.148 51.8016 19.1461 52.358 20.1788 52.848L21.342 58.4438C21.5505 59.4662 22.1218 60.3845 22.9557 61.0381C23.7896 61.6917 24.833 62.0389 25.9034 62.019H36.6682C37.7386 62.0389 38.782 61.6917 39.6159 61.0381C40.4498 60.3845 41.021 59.4662 41.2296 58.4438L42.3928 52.848C43.4329 52.3581 44.4386 51.8018 45.4033 51.1826L50.9226 53.0034C51.3935 53.1542 51.8865 53.2292 52.3822 53.2255C53.1821 53.2247 53.9677 53.0191 54.6602 52.6294C55.3528 52.2396 55.9278 51.6794 56.3278 51.0049L61.5278 42.1226C62.0601 41.2322 62.2579 40.1893 62.0873 39.1725C61.9167 38.1556 61.3884 37.2282 60.5927 36.549L56.2822 32.7074ZM52.1997 48.7844L44.377 46.2085C42.5457 47.7187 40.4528 48.8993 38.1963 49.6948L36.577 57.6666H25.8121L24.1928 49.7836C21.9542 48.9655 19.8726 47.787 18.035 46.2973L10.1894 48.7844L4.80696 39.9021L11.0104 34.5727C10.5887 32.2741 10.5887 29.9209 11.0104 27.6223L4.80696 22.1375L10.1894 13.2552L18.0122 15.8311C19.8434 14.3208 21.9363 13.1403 24.1928 12.3448L25.8121 4.37291H36.577L38.1963 12.2559C40.435 13.0741 42.5166 14.2526 44.3542 15.7422L52.1997 13.2552L57.5822 22.1375L51.3787 27.4669C51.8004 29.7655 51.8004 32.1186 51.3787 34.4173L57.5822 39.9021L52.1997 48.7844Z" fill="#FAB132"/>
<path d="M31.4996 45.9992C28.4341 45.9992 25.4374 45.0902 22.8885 43.3871C20.3396 41.6839 18.353 39.2632 17.1798 36.431C16.0067 33.5989 15.6998 30.4824 16.2978 27.4758C16.8959 24.4692 18.3721 21.7074 20.5397 19.5397C22.7074 17.3721 25.4692 15.8959 28.4758 15.2978C31.4824 14.6998 34.5989 15.0067 37.431 16.1798C40.2632 17.353 42.6839 19.3396 44.3871 21.8885C46.0902 24.4374 46.9992 27.4341 46.9992 30.4996C47.0199 32.5408 46.6332 34.5656 45.8616 36.4555C45.09 38.3453 43.9491 40.0623 42.5057 41.5057C41.0623 42.9491 39.3453 44.09 37.4555 44.8616C35.5656 45.6332 33.5408 46.0199 31.4996 45.9992ZM31.4996 20.1665C30.134 20.1347 28.776 20.3803 27.508 20.8883C26.2399 21.3963 25.0881 22.1563 24.1222 23.1222C23.1563 24.0881 22.3963 25.2399 21.8883 26.508C21.3803 27.776 21.1347 29.134 21.1665 30.4996C21.1347 31.8653 21.3803 33.2232 21.8883 34.4912C22.3963 35.7593 23.1563 36.9111 24.1222 37.877C25.0881 38.843 26.2399 39.6029 27.508 40.1109C28.776 40.619 30.134 40.8645 31.4996 40.8327C32.8653 40.8645 34.2232 40.619 35.4912 40.1109C36.7593 39.6029 37.9111 38.843 38.877 37.877C39.843 36.9111 40.6029 35.7593 41.1109 34.4912C41.619 33.2232 41.8645 31.8653 41.8327 30.4996C41.8645 29.134 41.619 27.776 41.1109 26.508C40.6029 25.2399 39.843 24.0881 38.877 23.1222C37.9111 22.1563 36.7593 21.3963 35.4912 20.8883C34.2232 20.3803 32.8653 20.1347 31.4996 20.1665Z" fill="#FAB132"/>
</svg>
