<svg width="62" height="62" viewBox="0 0 62 62" fill="none" xmlns="http://www.w3.org/2000/svg">
<path d="M31 0C24.8688 0 18.8753 1.81812 13.7773 5.22444C8.67941 8.63076 4.70606 13.4723 2.35975 19.1368C0.0134318 24.8013 -0.600471 31.0344 0.59567 37.0478C1.79181 43.0612 4.74427 48.5849 9.0797 52.9203C13.4151 57.2557 18.9388 60.2082 24.9522 61.4043C30.9656 62.6005 37.1987 61.9866 42.8632 59.6403C48.5277 57.2939 53.3692 53.3206 56.7756 48.2227C60.1819 43.1247 62 37.1312 62 31C62 22.7783 58.7339 14.8933 52.9203 9.07969C47.1067 3.26606 39.2217 0 31 0ZM31 11.0714C32.9708 11.0714 34.8972 11.6558 36.5359 12.7507C38.1745 13.8456 39.4516 15.4018 40.2058 17.2225C40.96 19.0433 41.1573 21.0468 40.7728 22.9796C40.3884 24.9125 39.4393 26.688 38.0458 28.0815C36.6523 29.4751 34.8768 30.4241 32.9439 30.8085C31.0111 31.193 29.0076 30.9957 27.1868 30.2415C25.3661 29.4873 23.8099 28.2102 22.715 26.5716C21.6201 24.933 21.0357 23.0065 21.0357 21.0357C21.0328 19.7264 21.2885 18.4293 21.7883 17.2191C22.288 16.0089 23.0218 14.9092 23.9477 13.9834C24.8735 13.0575 25.9732 12.3237 27.1834 11.824C28.3936 11.3242 29.6907 11.0685 31 11.0714ZM48.7143 50.7514C43.8584 55.1409 37.5458 57.5711 31 57.5711C24.4543 57.5711 18.1416 55.1409 13.2857 50.7514V49.4671C13.2019 46.4353 14.3176 43.4929 16.3906 41.2789C18.4636 39.065 21.3264 37.7583 24.3572 37.6429H37.6429C40.6599 37.764 43.5092 39.0631 45.5791 41.2614C47.6491 43.4596 48.7747 46.3819 48.7143 49.4007V50.7514Z" fill="#FAB132"/>
</svg>
