<svg width="52" height="52" viewBox="0 0 52 52" fill="none" xmlns="http://www.w3.org/2000/svg">
<path d="M26 3.71429C38.2571 3.71429 48.2857 13.7429 48.2857 26C48.2857 38.2571 38.2571 48.2857 26 48.2857C13.7429 48.2857 3.71429 38.2571 3.71429 26C3.71429 13.7429 13.7429 3.71429 26 3.71429ZM26 0C11.7 0 0 11.7 0 26C0 40.3 11.7 52 26 52C40.3 52 52 40.3 52 26C52 11.7 40.3 0 26 0Z" fill="#FAB132"/>
<path d="M41 24.125H27.875V11H24.125V24.125H11V27.875H24.125V41H27.875V27.875H41V24.125Z" fill="#FAB132"/>
</svg>
