<svg width="52" height="52" viewBox="0 0 52 52" fill="none" xmlns="http://www.w3.org/2000/svg">
<path d="M26 3.71429C38.2571 3.71429 48.2857 13.7429 48.2857 26C48.2857 38.2571 38.2571 48.2857 26 48.2857C13.7429 48.2857 3.71429 38.2571 3.71429 26C3.71429 13.7429 13.7429 3.71429 26 3.71429ZM26 0C11.7 0 0 11.7 0 26C0 40.3 11.7 52 26 52C40.3 52 52 40.3 52 26C52 11.7 40.3 0 26 0Z" fill="#FAB132"/>
<path d="M24 26.5C24 31.1944 20.1944 35 15.5 35C10.8056 35 7 31.1944 7 26.5C7 21.8056 10.8056 18 15.5 18C20.1944 18 24 21.8056 24 26.5ZM8.97088 26.5C8.97088 30.1059 11.8941 33.0291 15.5 33.0291C19.1059 33.0291 22.0291 30.1059 22.0291 26.5C22.0291 22.8941 19.1059 19.9709 15.5 19.9709C11.8941 19.9709 8.97088 22.8941 8.97088 26.5Z" fill="#FAB132"/>
<path d="M30.4176 23.95C29.1316 23.0255 27.5859 22.5319 26.0021 22.5398C24.4183 22.5478 22.8776 23.057 21.601 23.9944L22.7107 25.5057C23.6682 24.8027 24.8237 24.4208 26.0115 24.4148C27.1994 24.4088 28.3587 24.7791 29.3232 25.4724L30.4176 23.95Z" fill="#FAB132"/>
<path d="M45 26.5C45 31.1944 41.1944 35 36.5 35C31.8056 35 28 31.1944 28 26.5C28 21.8056 31.8056 18 36.5 18C41.1944 18 45 21.8056 45 26.5ZM29.9709 26.5C29.9709 30.1059 32.8941 33.0291 36.5 33.0291C40.1059 33.0291 43.0291 30.1059 43.0291 26.5C43.0291 22.8941 40.1059 19.9709 36.5 19.9709C32.8941 19.9709 29.9709 22.8941 29.9709 26.5Z" fill="#FAB132"/>
</svg>
