<svg width="63" height="63" viewBox="0 0 63 63" fill="none" xmlns="http://www.w3.org/2000/svg">
<path d="M53.8596 40.6179C55.7827 35.8393 56.2254 30.5506 55.1254 25.4953C54.0254 20.44 51.4381 15.8723 47.7273 12.4345C44.0164 8.99664 39.3686 6.86152 34.4373 6.32932C29.5059 5.79711 24.5391 6.89458 20.2351 9.46742L17.295 4.08351C21.793 1.395 26.8865 -0.012963 32.0673 8.9938e-05C37.2481 0.0131429 42.335 1.44676 46.8205 4.15789C60.1281 12.1919 65.2258 29.3944 59.0226 43.7392L63 46.1382L50.6557 53.0006L50.1667 38.3893L53.8596 40.6179ZM10.1434 21.3821C8.22028 26.1607 7.7776 31.4494 8.87757 36.5047C9.97754 41.56 12.5648 46.1277 16.2757 49.5655C19.9866 53.0034 24.6344 55.1385 29.5657 55.6707C34.497 56.2029 39.4638 55.1054 43.7678 52.5326L46.7079 57.9165C42.2099 60.605 37.1165 62.013 31.9357 61.9999C26.7549 61.9869 21.668 60.5532 17.1824 57.8421C3.8749 49.8081 -1.22286 32.6056 4.9804 18.2608L1 15.8649L13.3443 9.00249L13.8333 23.6138L10.1404 21.3852L10.1434 21.3821ZM21.6281 37.1991H37.9291C38.3221 37.1991 38.6991 37.0358 38.977 36.7452C39.2549 36.4545 39.411 36.0604 39.411 35.6493C39.411 35.2383 39.2549 34.8441 38.977 34.5535C38.6991 34.2628 38.3221 34.0996 37.9291 34.0996H26.0739C24.1087 34.0996 22.2241 33.2832 20.8345 31.83C19.445 30.3768 18.6643 28.4058 18.6643 26.3507C18.6643 24.2955 19.445 22.3246 20.8345 20.8714C22.2241 19.4182 24.1087 18.6018 26.0739 18.6018H29.0377V15.5022H34.9653V18.6018H42.3748V24.8009H26.0739C25.6808 24.8009 25.3039 24.9642 25.026 25.2548C24.7481 25.5455 24.592 25.9396 24.592 26.3507C24.592 26.7617 24.7481 27.1559 25.026 27.4465C25.3039 27.7372 25.6808 27.9004 26.0739 27.9004H37.9291C39.8942 27.9004 41.7789 28.7168 43.1684 30.17C44.558 31.6232 45.3386 33.5942 45.3386 35.6493C45.3386 37.7045 44.558 39.6754 43.1684 41.1286C41.7789 42.5818 39.8942 43.3982 37.9291 43.3982H34.9653V46.4978H29.0377V43.3982H21.6281V37.1991Z" fill="#FAB132"/>
</svg>
