<svg width="128" height="116" viewBox="0 0 128 116" fill="none" xmlns="http://www.w3.org/2000/svg">
<g id="logo64">
<g id="Vector 1">
<path d="M76.2308 98H92.0143L89.2769 79.4L86.0154 60.8L76.2308 98Z" fill="black"/>
<path d="M27.3077 5C27.3077 5 17.3686 5 11 5C17.3686 41.3188 27.3077 98 27.3077 98L38.1795 67L27.3077 5Z" fill="black"/>
<path d="M27.3077 98H43.6154L38.1795 67L27.3077 98Z" fill="black"/>
<path d="M60.2143 5L38.1795 67L43.6154 98L65.359 36L60.2143 5Z" fill="black"/>
<path d="M76.2308 5H60.2143L65.359 36L76.2308 5Z" fill="black"/>
<path d="M86.0154 60.8L76.2308 5L65.359 36L76.2308 98L86.0154 60.8Z" fill="black"/>
<path d="M117 5H101.1L86.0154 60.8L89.2769 79.4L92.0143 98L117 5Z" fill="black"/>
</g>
<path id="Vector 3" d="M76 5L44 98L60.3721 5H76Z" fill="#00FE91"/>
<path id="Vector 4" d="M117 5L93 98L101.727 5H117Z" fill="#00FE91"/>
</g>
</svg>
