<svg width="63" height="63" viewBox="0 0 63 63" fill="none" xmlns="http://www.w3.org/2000/svg">
<path d="M62.4904 59.2549L45.1657 41.8385C49.3074 36.8412 51.365 30.4405 50.9109 23.9659C50.4569 17.4913 47.5262 11.4404 42.7276 7.07006C37.929 2.6997 31.6313 0.345786 25.1426 0.497236C18.6538 0.648687 12.4728 3.29386 7.88334 7.88334C3.29386 12.4728 0.648687 18.6538 0.497236 25.1426C0.345786 31.6313 2.6997 37.929 7.07006 42.7276C11.4404 47.5262 17.4913 50.4569 23.9659 50.9109C30.4405 51.365 36.8412 49.3074 41.8385 45.1657L59.2549 62.4904L62.4904 59.2549ZM5.12399 25.7759C5.12399 21.6913 6.3352 17.6985 8.60446 14.3023C10.8737 10.9061 14.0991 8.25911 17.8727 6.69602C21.6464 5.13293 25.7988 4.72395 29.8049 5.52081C33.8109 6.31767 37.4908 8.28457 40.379 11.1728C43.2672 14.061 45.2341 17.7408 46.031 21.7469C46.8278 25.753 46.4188 29.9054 44.8557 33.679C43.2926 37.4527 40.6456 40.678 37.2495 42.9473C33.8533 45.2166 29.8604 46.4278 25.7759 46.4278C20.2987 46.4278 15.0458 44.252 11.1728 40.379C7.29981 36.506 5.12399 31.2531 5.12399 25.7759V25.7759Z" fill="#FAB132"/>
</svg>
